<?xml version="1.0" encoding="UTF-8" standalone="no"?>
<!-- Created with Inkscape (http://www.inkscape.org/) -->

<svg
   version="1.1"
   id="svg33171"
   xml:space="preserve"
   width="3456"
   height="1728"
   viewBox="0 0 3456 1728"
   sodipodi:docname="fond_tiroir.svg"
   inkscape:version="1.1.1 (3bf5ae0d25, 2021-09-20)"
   xmlns:inkscape="http://www.inkscape.org/namespaces/inkscape"
   xmlns:sodipodi="http://sodipodi.sourceforge.net/DTD/sodipodi-0.dtd"
   xmlns="http://www.w3.org/2000/svg"
   xmlns:svg="http://www.w3.org/2000/svg"><defs
     id="defs33175" /><sodipodi:namedview
     id="namedview33173"
     pagecolor="#ffffff"
     bordercolor="#666666"
     borderopacity="1.0"
     inkscape:pageshadow="2"
     inkscape:pageopacity="0.0"
     inkscape:pagecheckerboard="0"
     showgrid="false"
     inkscape:zoom="0.36805556"
     inkscape:cx="998.49057"
     inkscape:cy="862.64151"
     inkscape:window-width="1920"
     inkscape:window-height="1051"
     inkscape:window-x="-9"
     inkscape:window-y="-9"
     inkscape:window-maximized="1"
     inkscape:current-layer="g33197" /><g
     id="g33177"
     inkscape:groupmode="layer"
     inkscape:label="TTTRTT"
     transform="matrix(1.3333333,0,0,1.3333333,0,4.32e-5)"><g
       id="g33179"><g
         id="g33181"><path
           d="m 34.797,50.086 v 36.379 h 8.504 v 69.015 h -8.504 v 36.383 h 124.418 v -8.5 h 69.09 v 8.5 h 69.015 v -8.5 h 69.09 v 8.5 h 69.086 v -8.5 h 69.09 v 8.5 h 69.016 v -8.5 h 69.089 v 8.5 h 69.086 v -8.5 h 69.09 v 8.5 h 69.016 v -8.5 h 69.09 v 8.5 h 124.414 V 155.48 h -8.5 V 86.465 h 8.5 V 50.086 Z"
           style="fill:none;stroke:#ff0000;stroke-width:0.0720003;stroke-linecap:round;stroke-linejoin:miter;stroke-miterlimit:4;stroke-dasharray:none;stroke-opacity:1"
           id="path33183" /></g><g
         id="g33197"><path
           d="m 51.801,59.019 v 63.754 h -8.5 v 69.09 h 8.5 v 69.09 h -8.5 v 69.016 h 8.5 v 69.086 h -8.5 v 69.089 h 8.5 v 63.758 h 115.918 v 8.5 h 69.086 v -8.5 h 69.015 v 8.5 h 69.09 v -8.5 H 444 v 8.5 h 69.086 v -8.5 h 69.015 v 8.5 h 69.09 v -8.5 h 69.09 v 8.5 h 69.086 v -8.5 h 69.016 v 8.5 h 69.09 v -8.5 h 115.914 v -63.758 h 8.504 v -69.089 h -8.504 v -69.086 h 8.504 v -69.016 h -8.504 v -69.09 h 8.504 v -69.09 h -8.504 V 59.019 H 927.473 v -8.503 h -69.09 v 8.503 h -69.016 v -8.503 h -69.086 v 8.503 h -69.09 v -8.503 h -69.09 v 8.503 H 513.086 V 50.516 H 444 v 8.503 h -69.09 v -8.503 h -69.09 v 8.503 h -69.015 v -8.503 h -69.086 v 8.503 z"
           style="fill:none;stroke:#ff0000;stroke-width:0.072;stroke-linecap:round;stroke-linejoin:miter;stroke-miterlimit:4;stroke-dasharray:none;stroke-opacity:1"
           id="path33199" /></g></g></g></svg>
