<?xml version="1.0" encoding="UTF-8" standalone="no"?>
<!-- Created with Inkscape (http://www.inkscape.org/) -->

<svg
   version="1.1"
   id="svg33045"
   xml:space="preserve"
   width="3456"
   height="1728"
   viewBox="0 0 3456 1728"
   sodipodi:docname="sides_tiroir.svg"
   inkscape:version="1.1.1 (3bf5ae0d25, 2021-09-20)"
   xmlns:inkscape="http://www.inkscape.org/namespaces/inkscape"
   xmlns:sodipodi="http://sodipodi.sourceforge.net/DTD/sodipodi-0.dtd"
   xmlns="http://www.w3.org/2000/svg"
   xmlns:svg="http://www.w3.org/2000/svg"><defs
     id="defs33049" /><sodipodi:namedview
     id="namedview33047"
     pagecolor="#ffffff"
     bordercolor="#666666"
     borderopacity="1.0"
     inkscape:pageshadow="2"
     inkscape:pageopacity="0.0"
     inkscape:pagecheckerboard="0"
     showgrid="false"
     inkscape:zoom="0.38136574"
     inkscape:cx="1726.6889"
     inkscape:cy="864"
     inkscape:window-width="1920"
     inkscape:window-height="1051"
     inkscape:window-x="-9"
     inkscape:window-y="-9"
     inkscape:window-maximized="1"
     inkscape:current-layer="g33051" /><g
     id="g33051"
     inkscape:groupmode="layer"
     inkscape:label="DERNIER_TIROIR"
     transform="matrix(1.3333333,0,0,1.3333333,0,4.32e-5)"><g
       id="g33053"
       style="stroke-width:0.072;stroke-miterlimit:4;stroke-dasharray:none"><g
         id="g33055"
         style="stroke-width:0.072;stroke-miterlimit:4;stroke-dasharray:none"><path
           d="m 34.797,50.086 v 36.379 h 8.504 v 69.015 h -8.504 v 36.383 h 124.418 v -8.5 h 69.09 v 8.5 h 69.015 v -8.5 h 69.09 v 8.5 h 69.086 v -8.5 h 69.09 v 8.5 h 69.016 v -8.5 h 69.089 v 8.5 h 69.086 v -8.5 h 69.09 v 8.5 h 69.016 v -8.5 h 69.09 v 8.5 h 124.414 V 155.48 h -8.5 V 86.465 h 8.5 V 50.086 Z"
           style="fill:none;stroke:#ff0000;stroke-width:0.072;stroke-linecap:round;stroke-linejoin:miter;stroke-miterlimit:4;stroke-dasharray:none;stroke-opacity:1"
           id="path33057" /></g><g
         id="g33059"
         style="stroke-width:0.072;stroke-miterlimit:4;stroke-dasharray:none"><path
           d="m 61.215,242.863 v 36.383 h -8.5 v 69.016 h 8.5 v 36.379 h 63.758 v -8.5 h 69.089 v 8.5 h 69.086 v -8.5 h 69.016 v 8.5 h 69.09 v -8.5 h 69.09 v 8.5 h 63.754 v -36.379 h 8.504 v -69.016 h -8.504 v -36.383 z"
           style="fill:none;stroke:#ff0000;stroke-width:0.072;stroke-linecap:round;stroke-linejoin:miter;stroke-miterlimit:4;stroke-dasharray:none;stroke-opacity:1"
           id="path33061" /></g><g
         id="g33063"
         style="stroke-width:0.072;stroke-miterlimit:4;stroke-dasharray:none"><path
           d="m 1078.168,47.941 v 36.383 h 8.504 v 69.016 h -8.504 v 36.383 h 124.418 v -8.5 h 69.09 v 8.5 h 69.015 v -8.5 h 69.086 v 8.5 h 69.09 v -8.5 h 69.09 v 8.5 h 69.016 v -8.5 h 69.086 v 8.5 h 69.089 v -8.5 h 69.09 v 8.5 h 69.016 v -8.5 h 69.09 v 8.5 h 124.414 V 153.34 h -8.5 V 84.324 h 8.5 V 47.941 Z"
           style="fill:none;stroke:#ff0000;stroke-width:0.072;stroke-linecap:round;stroke-linejoin:miter;stroke-miterlimit:4;stroke-dasharray:none;stroke-opacity:1"
           id="path33065" /></g><g
         id="g33067"
         style="stroke-width:0.072;stroke-miterlimit:4;stroke-dasharray:none"><path
           d="m 573.602,242.863 v 36.383 h -8.5 v 69.016 h 8.5 v 36.379 h 63.757 v -8.5 h 69.086 v 8.5 h 69.09 v -8.5 h 69.016 v 8.5 h 69.09 v -8.5 h 69.086 v 8.5 h 63.757 v -36.379 h 8.504 v -69.016 h -8.504 v -36.383 z"
           style="fill:none;stroke:#ff0000;stroke-width:0.072;stroke-linecap:round;stroke-linejoin:miter;stroke-miterlimit:4;stroke-dasharray:none;stroke-opacity:1"
           id="path33069" /></g><g
         id="g33071"
         style="stroke-width:0.072;stroke-miterlimit:4;stroke-dasharray:none"><path
           d="m 1478.867,122.645 h 214.906 v 9.367 h -214.906 z"
           style="fill:none;stroke:#ff0000;stroke-width:0.072;stroke-linecap:round;stroke-linejoin:miter;stroke-miterlimit:4;stroke-dasharray:none;stroke-opacity:1"
           id="path33073" /></g><g
         id="g33075"
         style="stroke-width:0.072;stroke-miterlimit:4;stroke-dasharray:none"><path
           d="m 1190.133,267.352 h 214.758 v 86.184 h -214.758 z"
           style="fill:none;stroke:#ff0000;stroke-width:0.072;stroke-linecap:round;stroke-linejoin:miter;stroke-miterlimit:4;stroke-dasharray:none;stroke-opacity:1"
           id="path33077" /></g></g></g></svg>
